<svg xmlns="http://www.w3.org/2000/svg" viewBox="0 0 520 720">
  <g fill="#7B2034">
    <rect x="292" y="36" width="16" height="642" rx="8"/>
    <circle cx="300" cy="34" r="16"/>
    <circle cx="300" cy="682" r="18"/>
    <path d="M121 350c24-78 104-119 196-100 52 11 89 44 105 90 15 44 4 97-29 132-35 37-92 54-153 44-80-13-134-77-119-166z"/>
    <path d="M330 257c1-63 31-111 78-135 23-12 48-8 62 10 13 17 9 43-10 57-13 10-28 14-39 27-15 18-24 43-31 72z"/>
    <path d="M407 118l26-39 10 47z"/>
    <path d="M436 123l34-26-6 43z"/>
    <path d="M155 321c-47-4-83 12-105 48 30-8 58-1 82 22-33 9-56 29-70 58 36-14 69-10 99 13z"/>
    <path d="M189 474c-14 55-39 103-77 142 34 0 64-17 89-52 8 41 25 74 52 98 3-58-4-114-22-169z"/>
    <path d="M322 488c6 59 20 111 42 157 16-28 22-61 18-101 24 26 51 43 82 50-34-39-60-83-79-132z"/>
  </g>
  <g fill="none" stroke="#7B2034" stroke-width="12" stroke-linecap="round">
    <path d="M190 286c42-32 89-44 141-35"/>
    <path d="M349 201c28 9 51 5 69-13"/>
    <path d="M174 430c66 32 137 33 212 2"/>
  </g>
</svg>